# xmcd
#
# Track frame offsets: 
#        150
#        19511
#        37715
#        53765
#        71767
#        88895
#        103858
#        125048
#
# Disc length: 1858 seconds
#
# Revision: 0
# Processed by: cddbd v1.5.2PL0 Copyright (c) Steve Scherf et al.
# Submitted via: ExactAudioCopy v1.3
#
DISCID=66074008
DTITLE=Somerset Barnard - Trains and Churches
DYEAR=2018
DGENRE=Blues
TTITLE0=Rose
TTITLE1=Before the Light
TTITLE2=Gulasch Bayou
TTITLE3=Lay Your Washing on the Line
TTITLE4=Midnight Train
TTITLE5=Albert Heijn
TTITLE6=I Saw a Man Die Today
TTITLE7=Lonesome Whistle
EXTD=
EXTT0=
EXTT1=
EXTT2=
EXTT3=
EXTT4=
EXTT5=
EXTT6=
EXTT7=
PLAYORDER=
